<?xml version="1.0"?>
<svg xmlns="http://www.w3.org/2000/svg" viewBox="0 0 512 512" width="512" height="512"><g id="Outline"><path d="M48,496H208a32.036,32.036,0,0,0,32-32H224a16.019,16.019,0,0,1-16,16H48a16.019,16.019,0,0,1-16-16V448H152V432H32V264H240V250.24a85.6,85.6,0,0,0-56-80.03V128a8,8,0,0,0-8-8H152V80h24a8,8,0,0,0,8-8h44.687l5.656,5.657A8,8,0,0,0,240,80h32a8,8,0,0,0,8-8,48.055,48.055,0,0,0-48-48H184a8,8,0,0,0-8-8H80a8,8,0,0,0-8,8V72a8,8,0,0,0,8,8h24v40H80a8,8,0,0,0-8,8v42.205A85.551,85.551,0,0,0,42.485,188.49l11.03,11.592A69.479,69.479,0,0,1,81.152,184H104v64H32.045a68.625,68.625,0,0,1,13.912-39.442l-12.773-9.636A84.559,84.559,0,0,0,16,250.24V464A32.036,32.036,0,0,0,48,496ZM184,40h48a32.054,32.054,0,0,1,30.987,24H243.313l-5.656-5.657A8,8,0,0,0,232,56H184ZM136,248H120V184h16Zm87.954,0H152V184h22.848A69.524,69.524,0,0,1,223.954,248ZM88,64V32h80V64Zm48,16v40H120V80ZM88,168V136h80v32ZM64.976,241.83,49.4,238.17A53.285,53.285,0,0,1,82.24,200.528l5.715,14.944A37.3,37.3,0,0,0,64.976,241.83ZM256,104a8,8,0,0,0-6.86,3.884l-20.58,34.3C215.829,163.4,230.993,192,256,192a32.036,32.036,0,0,0,32-32,33.93,33.93,0,0,0-4.56-17.816l-20.58-34.3A8,8,0,0,0,256,104Zm16.083,54.645c.194,8.8-6.355,17.347-16.07,17.355-12.662.01-20.08-15.01-13.733-25.584L256,127.549l13.72,22.866A16.622,16.622,0,0,1,272.083,158.645ZM496,312V440a8,8,0,0,1-8,8H211.325a55.748,55.748,0,0,1-38.8-15.622l-88.141-84.7a39.12,39.12,0,0,1,53.173-57.392l.109.1L219.2,368h84.823A7.977,7.977,0,0,0,312,360.019v-.484A7.537,7.537,0,0,0,304.472,352L236,352a36,36,0,0,1,0-72H318.7l26.358-8.786a140.577,140.577,0,0,1,111.4,9.751l-7.619,14.069a124.58,124.58,0,0,0-98.724-8.641l-27.589,9.2A8,8,0,0,1,320,296H236a20,20,0,0,0,0,40l68.472,0A23.554,23.554,0,0,1,328,359.518V360a23.978,23.978,0,0,1-23.976,24H216a8,8,0,0,1-5.516-2.206l-83.8-79.765a23.119,23.119,0,0,0-31.344,33.992l.084.081,88.179,84.739A39.82,39.82,0,0,0,211.325,432H480V316.117L461.922,303.2l9.3-13.019L492.65,305.49A8,8,0,0,1,496,312Z"/></g></svg>
